<?xml version="1.0" encoding="UTF-8" standalone="no"?>
<!-- Created with Inkscape (http://www.inkscape.org/) -->

<svg
   width="63.999996"
   height="63.999996"
   viewBox="0 0 16.933332 16.933332"
   version="1.1"
   id="svg1"
   inkscape:version="1.3 (1:1.3+202307231459+0e150ed6c4)"
   sodipodi:docname="edit.svg"
   xmlns:inkscape="http://www.inkscape.org/namespaces/inkscape"
   xmlns:sodipodi="http://sodipodi.sourceforge.net/DTD/sodipodi-0.dtd"
   xmlns="http://www.w3.org/2000/svg"
   xmlns:svg="http://www.w3.org/2000/svg">
  <sodipodi:namedview
     id="namedview1"
     pagecolor="#ffffff"
     bordercolor="#000000"
     borderopacity="0.25"
     inkscape:showpageshadow="2"
     inkscape:pageopacity="0.0"
     inkscape:pagecheckerboard="0"
     inkscape:deskcolor="#d1d1d1"
     inkscape:document-units="px"
     showgrid="true"
     inkscape:zoom="8.2243423"
     inkscape:cx="32.829373"
     inkscape:cy="42.191824"
     inkscape:window-width="1850"
     inkscape:window-height="1016"
     inkscape:window-x="70"
     inkscape:window-y="27"
     inkscape:window-maximized="1"
     inkscape:current-layer="layer1"
     showguides="false">
    <inkscape:grid
       id="grid1"
       units="px"
       originx="0"
       originy="0"
       spacingx="0.26458333"
       spacingy="0.52916666"
       empcolor="#0099e5"
       empopacity="0.30196078"
       color="#0099e5"
       opacity="0.14901961"
       empspacing="5"
       dotted="false"
       gridanglex="30"
       gridanglez="30"
       visible="true" />
  </sodipodi:namedview>
  <defs
     id="defs1">
    <marker
       markerWidth="6"
       markerHeight="6"
       refX="0.5"
       refY="24.8"
       orient="0.00"
       id="Pencil"
       inkscape:stockid="Pencil"
       viewBox="0 0 25.285856 25.285856"
       preserveAspectRatio="xMidYMid"
       inkscape:isstock="true"
       inkscape:collect="always">
      <g
         id="g129150"
         transform="rotate(-45,9.8960746,24.301623)">
        <path
           style="fill:#ffeadb;fill-opacity:1;stroke:none;stroke-width:0.9;stroke-linejoin:round;stroke-miterlimit:4;stroke-dasharray:none"
           d="M 11.395811,16.291204 2.8389018,18 11.281989,13.379712 Z"
           sodipodi:nodetypes="cccc"
           id="path42" />
        <path
           style="fill:context-stroke;fill-opacity:1;stroke:none"
           d="m 11.8654,20 h 14.2415 v 3 H 11.8654 c -0.96644,-0.984185 -0.960953,-2.091292 0,-3 z"
           sodipodi:nodetypes="ccccc"
           id="path43" />
        <path
           style="fill:context-stroke;stroke:#000000;stroke-width:0"
           d="M 11.80696,16 H 26.1069 v 4 H 11.80696 c -1.211769,-1.198221 -1.221718,-2.780057 0,-4 z"
           sodipodi:nodetypes="ccccc"
           id="path44" />
        <path
           style="fill:#ffdbc2;fill-opacity:1;stroke:none;stroke-width:0.9;stroke-linejoin:round;stroke-miterlimit:4;stroke-dasharray:none"
           d="M 10.8389,18 H 2.8389018 L 11.8389,15.8 Z"
           sodipodi:nodetypes="cccc"
           id="path45" />
        <path
           style="fill:#f5ad7a;fill-opacity:1;stroke:none;stroke-width:0.9;stroke-linejoin:round;stroke-miterlimit:4;stroke-dasharray:none"
           d="M 11.079475,22.569659 2.8389018,18 11.585758,19.873429 Z"
           sodipodi:nodetypes="cccc"
           id="path46" />
        <path
           style="fill:#fcc39c;fill-opacity:1;stroke:none;stroke-width:0.9;stroke-linejoin:round;stroke-miterlimit:4;stroke-dasharray:none"
           d="M 11.8389,20.2 2.8389018,18 10.8389,17.8 Z"
           sodipodi:nodetypes="cccc"
           id="path47" />
        <path
           style="fill:context-stroke;fill-opacity:1;stroke:#000000;stroke-width:0"
           d="M 11.85202,13 H 26.1069 v 3 H 11.85202 c -1.047549,-0.941426 -0.993936,-2.069912 0,-3 z"
           sodipodi:nodetypes="ccccc"
           id="path48" />
        <path
           style="fill:none;fill-opacity:1;stroke:#000000;stroke-width:0.9;stroke-linejoin:round;stroke-miterlimit:4;stroke-dasharray:none"
           d="M 11.8389,23 2.8389018,18 11.8389,13"
           sodipodi:nodetypes="ccc"
           id="path49" />
        <path
           style="fill:none;stroke:#000000;stroke-width:0.9;stroke-linejoin:round;stroke-miterlimit:4;stroke-dasharray:none"
           d="M 11.80696,16 H 26.1069 v 4 H 11.80696 c -1.211769,-1.198221 -1.221718,-2.780057 0,-4 z"
           sodipodi:nodetypes="ccccc"
           id="path50" />
        <path
           style="fill:#000000;fill-opacity:1;stroke:none;stroke-width:0.9;stroke-linejoin:round;stroke-miterlimit:4;stroke-dasharray:none"
           d="m 5.8389018,19.66663 -3,-1.66663 3,-1.66663 z"
           sodipodi:nodetypes="cccc"
           id="path51" />
        <path
           style="opacity:0.480349;fill:#ffffff;fill-opacity:1;stroke:none;stroke-width:0.9;stroke-linejoin:round;stroke-miterlimit:4;stroke-dasharray:none"
           d="M 11.801044,13 H 25.1069 v 3 H 11.801044 c -0.977808,-0.941426 -0.927764,-2.069912 0,-3 z"
           sodipodi:nodetypes="ccccc"
           id="path52" />
        <path
           style="opacity:0.349345;fill:#000000;fill-opacity:1;stroke:none;stroke-width:0.9;stroke-linejoin:round;stroke-miterlimit:4;stroke-dasharray:none"
           d="m 11.8171,20 h 13.2898 v 3 H 11.8171 c -0.901857,-0.984185 -0.896736,-2.091292 0,-3 z"
           sodipodi:nodetypes="ccccc"
           id="path53" />
        <path
           style="fill:none;fill-opacity:1;stroke:#000000;stroke-width:0.9;stroke-linejoin:round;stroke-miterlimit:4;stroke-dasharray:none"
           d="m 11.8654,20 h 14.2415 v 3 H 11.8654 c -0.96644,-0.984185 -0.960953,-2.091292 0,-3 z"
           sodipodi:nodetypes="ccccc"
           id="path54" />
        <rect
           style="fill:#ff5555;fill-opacity:1;stroke:none;stroke-width:0.9;stroke-linejoin:round;stroke-miterlimit:4;stroke-dasharray:none"
           width="7"
           height="10"
           x="26.5"
           y="13"
           ry="2"
           rx="2"
           id="rect54" />
        <path
           style="fill:#ffffff;fill-opacity:0.18;stroke-width:0.9;stroke-linejoin:round"
           d="m 29,13 h 3.768096 l 0.695712,3 H 29 Z"
           sodipodi:nodetypes="ccccc"
           id="path55" />
        <path
           style="fill-opacity:0.157303;stroke-width:0.9;stroke-linejoin:round"
           d="m 29,20 h 4.521784 l -0.927616,3 H 29 Z"
           sodipodi:nodetypes="ccccc"
           id="path56" />
        <rect
           style="fill:none;fill-opacity:1;stroke:#000000;stroke-width:0.9;stroke-linejoin:round;stroke-miterlimit:4;stroke-dasharray:none"
           width="7"
           height="10"
           x="26.5"
           y="13"
           ry="2"
           rx="2"
           id="rect56" />
        <path
           style="fill:none;fill-opacity:1;stroke:#000000;stroke-width:0.9;stroke-linejoin:round;stroke-miterlimit:4;stroke-dasharray:none"
           d="m 11.8654,13 h 14.2415 v 3 H 11.8654 c -0.96644,-0.984185 -0.960953,-2.091292 0,-3 z"
           sodipodi:nodetypes="ccccc"
           id="path57" />
        <g
           transform="translate(-2,-10)"
           id="g61">
          <rect
             style="fill:#b3b3b3;fill-opacity:1;stroke:none;stroke-width:0.9;stroke-linejoin:round;stroke-miterlimit:4;stroke-dasharray:none"
             width="5"
             height="3"
             x="26"
             y="30"
             id="rect57" />
          <rect
             style="fill:#cccccc;fill-opacity:1;stroke:none;stroke-width:0.9;stroke-linejoin:round;stroke-miterlimit:4;stroke-dasharray:none"
             width="5"
             height="2.5"
             x="26"
             y="28"
             id="rect58" />
          <rect
             style="fill:#e6e6e6;fill-opacity:1;stroke:none;stroke-width:0.9;stroke-linejoin:round;stroke-miterlimit:4;stroke-dasharray:none"
             width="5"
             height="3"
             x="26"
             y="25"
             id="rect59" />
          <rect
             style="fill:#f9f9f9;fill-opacity:1;stroke:none;stroke-width:0.9;stroke-linejoin:round;stroke-miterlimit:4;stroke-dasharray:none"
             width="5"
             height="2.5"
             x="26"
             y="23"
             id="rect60" />
          <rect
             style="fill:none;fill-opacity:1;stroke:#000000;stroke-width:0.9;stroke-linejoin:round;stroke-miterlimit:4;stroke-dasharray:none"
             width="5"
             height="10"
             x="26"
             y="23"
             id="rect61" />
        </g>
      </g>
    </marker>
    <inkscape:path-effect
       effect="bspline"
       id="path-effect3"
       is_visible="true"
       lpeversion="1.3"
       weight="33.333333"
       steps="2"
       helper_size="0"
       apply_no_weight="true"
       apply_with_weight="true"
       only_selected="false"
       uniform="false" />
  </defs>
  <g
     inkscape:label="Layer 1"
     inkscape:groupmode="layer"
     id="layer1">
    <path
       style="fill:#ffcc00;fill-opacity:0.494345;stroke:#003380;stroke-width:0.529167;stroke-linecap:round;stroke-miterlimit:0.2;stroke-dasharray:none"
       d="M 4.5104636,1.8465002 C 6.614583,1.5874999 9.7895829,1.5874999 11.685769,1.5874999 c 1.896187,0 2.513536,0 3.042707,0.1763925 0.529171,0.1763924 0.970126,0.5291564 0.749635,0.9701372 -0.220491,0.4409808 -1.1024,0.9701262 -1.058302,1.675696 0.0441,0.7055699 1.014199,1.5874789 0.970101,2.9104219 -0.0441,1.322943 -1.10239,3.0867615 -1.014194,4.3608815 0.0882,1.27412 1.32287,2.05839 1.32287,2.587567 0,0.529177 -1.234699,0.803205 -3.880572,0.940221 C 9.1721407,15.345833 5.115358,15.345833 3.2191399,15.16944 1.3229219,14.993048 1.5875,14.640277 1.9402822,14.287496 2.2930644,13.934714 2.7340187,13.581951 2.5653388,12.907249 2.396659,12.232547 1.6183655,11.235989 1.6183656,10.442223 1.6183657,9.6484577 2.3966751,9.0575679 2.4771508,8.4093322 2.5576264,7.7610966 1.9402778,7.0555553 1.9402839,6.3499927 1.9402901,5.64443 2.5576388,4.9388887 2.3937877,4.4041354 2.2299367,3.869382 1.2849296,3.5054527 1.3290277,3.0644717 1.3731258,2.6234908 2.4063442,2.1055005 4.5104636,1.8465002 Z"
       id="path3"
       sodipodi:nodetypes="csccccccsccccccccc"
       inkscape:original-d="m 3.4395833,1.5874999 c 3.1749997,0 6.3499996,0 9.5249997,0 0.617373,0 1.234722,0 1.852083,0 0.440981,0.3527848 0.881936,0.7055485 1.322916,1.0583333 -0.881962,0.5291771 -1.763871,1.0583225 -2.645833,1.5874998 0.970159,0.8819623 1.940259,1.7638713 2.910417,2.6458333 -1.058355,1.7639239 -2.116646,3.5277427 -3.175,5.2916667 1.234746,0.784316 2.46942,1.568586 3.704167,2.352902 -1.234747,0.274038 -2.469446,0.548066 -3.704167,0.822098 -4.0570253,0 -8.113808,0 -12.1708327,0 C 1.3229219,14.993048 1.5875,14.640277 1.8520833,14.287499 2.2930642,13.934714 2.7340188,13.581951 3.1749998,13.229166 2.3966593,12.232547 1.6183655,11.235989 0.84002535,10.239371 1.6183656,9.6484575 2.3966751,9.0575678 3.175,8.4666663 2.5576264,7.7610966 1.9402777,7.0555553 1.3229166,6.3499997 1.94029,5.64443 2.5576388,4.9388887 3.175,4.233333 2.2299367,3.869382 1.2849296,3.5054527 0.33986621,3.1415017 1.3731258,2.6234908 2.4063442,2.1055005 3.4395833,1.5874999 Z"
       inkscape:path-effect="#path-effect3"
       transform="translate(-0.04410295,-0.52916662)" />
    <rect
       style="fill:#2a7fff;fill-opacity:0.264114;stroke:#003380;stroke-width:0.529167;stroke-linecap:round;stroke-miterlimit:0.2;stroke-dasharray:none"
       id="rect3"
       width="8.4666662"
       height="10.583333"
       x="3.9246469"
       y="2.645834"
       ry="1.5874991" />
    <rect
       style="fill:#0044aa;stroke:#003380;stroke-width:0.529167;stroke-linecap:round;stroke-miterlimit:0.2;stroke-dasharray:none"
       id="rect4"
       width="7.9428892"
       height="2.6566126"
       x="4.1865349"
       y="2.8769183"
       ry="1.062645" />
    <ellipse
       style="fill:#003380;stroke:#003380;stroke-width:0.529167;stroke-linecap:round;stroke-miterlimit:0.2;stroke-dasharray:none"
       id="path4"
       cx="5.2214432"
       cy="7.2947536"
       rx="0.5958184"
       ry="0.29488349" />
    <ellipse
       style="fill:#003380;stroke:#003380;stroke-width:0.529167;stroke-linecap:round;stroke-miterlimit:0.2;stroke-dasharray:none"
       id="path5"
       cx="5.2218237"
       cy="9.108283"
       rx="0.57162941"
       ry="0.337338" />
    <ellipse
       style="fill:#003380;stroke:#003380;stroke-width:0.529167;stroke-linecap:round;stroke-miterlimit:0.2;stroke-dasharray:none"
       id="path6"
       cx="5.2475634"
       cy="10.835155"
       rx="0.5629757"
       ry="0.25182122" />
    <path
       style="fill:none;fill-opacity:1;stroke:#003380;stroke-width:0.529167;stroke-linecap:round;stroke-miterlimit:0.2;stroke-dasharray:none"
       d="M 6.8791663,7.408333 C 7.8377197,5.894303 11.440346,8.0190358 11.377083,6.8791663"
       id="path7" />
    <path
       style="fill:none;fill-opacity:1;stroke:#003380;stroke-width:0.529167;stroke-linecap:round;stroke-miterlimit:0.2;stroke-dasharray:none"
       d="M 6.614583,8.995833 C 6.8885953,9.061034 7.3360004,8.8524949 7.5996701,8.975976 9.1562099,9.7049388 10.141442,8.2789084 11.377083,8.995833"
       id="path8" />
    <path
       style="fill:none;fill-opacity:1;stroke:#003380;stroke-width:0.529167;stroke-linecap:round;stroke-miterlimit:0.2;stroke-dasharray:none;marker-end:url(#Pencil)"
       d="M 6.6145827,10.835155 C 7.1986726,10.756686 7.752055,9.9745801 8.3840131,10.194698 8.9622626,10.396109 10.15352,12.494851 11.1125,10.583333"
       id="path9" />
  </g>
</svg>
