<?xml version="1.0" encoding="UTF-8" standalone="no"?>
<!-- Created with Inkscape (http://www.inkscape.org/) -->

<svg
   width="63.999996"
   height="63.999996"
   viewBox="0 0 16.933332 16.933332"
   version="1.1"
   id="svg5"
   xml:space="preserve"
   inkscape:version="1.3 (1:1.3+202307231459+0e150ed6c4)"
   sodipodi:docname="joint.svg"
   inkscape:export-filename="Documents/rdf_icons/joint.svg"
   inkscape:export-xdpi="96"
   inkscape:export-ydpi="96"
   xmlns:inkscape="http://www.inkscape.org/namespaces/inkscape"
   xmlns:sodipodi="http://sodipodi.sourceforge.net/DTD/sodipodi-0.dtd"
   xmlns="http://www.w3.org/2000/svg"
   xmlns:svg="http://www.w3.org/2000/svg"
   xmlns:rdf="http://www.w3.org/1999/02/22-rdf-syntax-ns#"
   xmlns:cc="http://creativecommons.org/ns#"><sodipodi:namedview
     id="namedview7"
     pagecolor="#ffffff"
     bordercolor="#000000"
     borderopacity="0.25"
     inkscape:showpageshadow="2"
     inkscape:pageopacity="0.0"
     inkscape:pagecheckerboard="false"
     inkscape:deskcolor="#d1d1d1"
     inkscape:document-units="px"
     showgrid="true"
     inkscape:zoom="5.12"
     inkscape:cx="26.171875"
     inkscape:cy="45.117188"
     inkscape:window-width="1850"
     inkscape:window-height="1016"
     inkscape:window-x="70"
     inkscape:window-y="27"
     inkscape:window-maximized="1"
     inkscape:current-layer="svg5"><inkscape:grid
       type="xygrid"
       id="grid138"
       spacingy="0.52916666"
       empspacing="2"
       originx="0"
       originy="0"
       spacingx="1"
       units="px"
       visible="true" /></sodipodi:namedview><defs
     id="defs2" /><g
     inkscape:label="Layer 1"
     inkscape:groupmode="layer"
     id="layer1"
     transform="translate(14.149044,3.3308084)"><path
       id="rect13202"
       style="display:inline;fill:#3771c8;fill-opacity:1;stroke:#000000;stroke-width:0.529167;stroke-linecap:round;stroke-linejoin:round;stroke-miterlimit:0.2;stroke-dasharray:none;stroke-opacity:1;paint-order:normal"
       inkscape:transform-center-x="0.08893754"
       inkscape:transform-center-y="0.24458877"
       d="M -0.90669995,-1.8792179 -3.7938621,1.0017432 A 4.4841323,4.4841323 0 0 0 -5.6790184,0.58316414 4.4841323,4.4841323 0 0 0 -8.19256,1.3546931 l 1.3725261,1.3286011 a 2.6458333,2.6458333 0 0 1 1.1410155,-0.2619995 2.6458333,2.6458333 0 0 1 2.6458333,2.6458333 2.6458333,2.6458333 0 0 1 -0.2759522,1.1694377 l 1.359607,1.3172322 A 4.4841323,4.4841323 0 0 0 -1.1950544,5.067128 4.4841323,4.4841323 0 0 0 -1.531468,3.3726578 L 1.3851498,0.4622413 Z M -9.5273622,2.7706274 a 4.4841323,4.4841323 0 0 0 -0.6356198,2.2965006 4.4841323,4.4841323 0 0 0 0.4061764,1.8588013 l -2.9930984,2.8179158 2.223119,2.4070889 3.1279751,-2.9455575 a 4.4841323,4.4841323 0 0 0 1.7197916,0.3457154 4.4841323,4.4841323 0 0 0 2.321822,-0.651123 L -4.7571109,7.5439793 A 2.6458333,2.6458333 0 0 1 -5.6790184,7.7129613 2.6458333,2.6458333 0 0 1 -8.3248516,5.067128 2.6458333,2.6458333 0 0 1 -8.1434674,4.1111141 Z" /><circle
       style="display:inline;fill:#0b1728;fill-opacity:1;stroke:#000000;stroke-width:0.529167;stroke-linecap:round;stroke-dasharray:none;stroke-opacity:1"
       id="path13286"
       cx="-5.6823773"
       cy="5.1358581"
       r="1.4552083" /></g><metadata
     id="metadata132"><rdf:RDF><cc:Work
         rdf:about="" /></rdf:RDF></metadata></svg>
