<?xml version="1.0" encoding="UTF-8" standalone="no"?>
<!-- Created with Inkscape (http://www.inkscape.org/) -->

<svg
   width="63.999996"
   height="63.999996"
   viewBox="0 0 16.933332 16.933332"
   version="1.1"
   id="svg1"
   xml:space="preserve"
   inkscape:export-filename="robot_icon.svg"
   inkscape:export-xdpi="96"
   inkscape:export-ydpi="96"
   inkscape:version="1.3 (1:1.3+202307231459+0e150ed6c4)"
   sodipodi:docname="robot_icon.svg"
   xmlns:inkscape="http://www.inkscape.org/namespaces/inkscape"
   xmlns:sodipodi="http://sodipodi.sourceforge.net/DTD/sodipodi-0.dtd"
   xmlns="http://www.w3.org/2000/svg"
   xmlns:svg="http://www.w3.org/2000/svg"><sodipodi:namedview
     id="namedview1"
     pagecolor="#ffffff"
     bordercolor="#000000"
     borderopacity="0.25"
     inkscape:showpageshadow="2"
     inkscape:pageopacity="0.0"
     inkscape:pagecheckerboard="0"
     inkscape:deskcolor="#d1d1d1"
     inkscape:document-units="px"
     showgrid="true"
     inkscape:zoom="8.2243423"
     inkscape:cx="32.950963"
     inkscape:cy="35.625949"
     inkscape:window-width="1850"
     inkscape:window-height="1016"
     inkscape:window-x="70"
     inkscape:window-y="27"
     inkscape:window-maximized="1"
     inkscape:current-layer="svg1"><inkscape:grid
       id="grid1"
       units="px"
       originx="0"
       originy="0"
       spacingx="0.26458333"
       spacingy="0.52916666"
       empcolor="#0099e5"
       empopacity="0.30196078"
       color="#0099e5"
       opacity="0.14901961"
       empspacing="5"
       dotted="false"
       gridanglex="30"
       gridanglez="30"
       visible="true" /></sodipodi:namedview><defs
     id="defs1"><inkscape:path-effect
       effect="bspline"
       id="path-effect10"
       is_visible="true"
       lpeversion="1.3"
       weight="33.333333"
       steps="2"
       helper_size="0"
       apply_no_weight="true"
       apply_with_weight="true"
       only_selected="false"
       uniform="false" /><inkscape:path-effect
       effect="bspline"
       id="path-effect5"
       is_visible="true"
       lpeversion="1.3"
       weight="33.333333"
       steps="2"
       helper_size="0"
       apply_no_weight="true"
       apply_with_weight="true"
       only_selected="false"
       uniform="false" /><inkscape:path-effect
       effect="bspline"
       id="path-effect4"
       is_visible="true"
       lpeversion="1.3"
       weight="33.333333"
       steps="2"
       helper_size="0"
       apply_no_weight="true"
       apply_with_weight="true"
       only_selected="false"
       uniform="false" /></defs><g
     inkscape:label="Layer 1"
     inkscape:groupmode="layer"
     id="layer1"><rect
       style="fill:#28220b;stroke:#000000;stroke-width:0.529167;stroke-linecap:round;stroke-linejoin:round;stroke-miterlimit:0.2;stroke-dasharray:none"
       id="rect1"
       width="7.2938132"
       height="0.95047557"
       x="7.6134672"
       y="12.913436" /><rect
       style="fill:#aa8800;stroke:#000000;stroke-width:0.514765;stroke-linecap:round;stroke-linejoin:miter;stroke-miterlimit:0.2;stroke-dasharray:none"
       id="rect2"
       width="7.1225481"
       height="1.8315086"
       x="7.7950377"
       y="10.102992" /><path
       id="path2"
       style="fill:#ffcc00;stroke:#000000;stroke-width:0.529167;stroke-linecap:round;stroke-linejoin:miter;stroke-miterlimit:0.2;stroke-dasharray:none"
       d="M 11.340409,7.4622218 A 2.5321698,2.5321698 0 0 0 10.069686,7.7981186 2.5321698,2.5321698 0 0 0 8.797928,9.9943674 h 2.532146 l 2.532145,0.02067 A 2.5321698,2.5321698 0 0 0 12.608032,7.8084539 2.5321698,2.5321698 0 0 0 11.340409,7.4622218 Z m 0.03824,1.2417847 A 0.61889535,0.61889535 0 0 1 11.997733,9.3225734 0.61889535,0.61889535 0 0 1 11.37865,9.941657 0.61889535,0.61889535 0 0 1 10.760083,9.3225734 0.61889535,0.61889535 0 0 1 11.378649,8.7040065 Z" /><path
       style="fill:#ffcc00;stroke:#000000;stroke-width:0.529167;stroke-linecap:round;stroke-linejoin:miter;stroke-miterlimit:0.2;stroke-dasharray:none"
       d="M 7.3565035,7.764179 C 6.7423566,7.1080321 5.8251792,4.8269216 5.6097459,3.593744 5.3943127,2.3605664 5.8806408,2.1754207 6.2394641,1.9674756 6.5982873,1.7595304 6.8295819,1.5288036 7.7705876,2.4346843 8.7115933,3.340565 10.36223,5.3829853 10.617545,6.2470719 10.872859,7.1111584 9.732864,6.7968829 9.007303,7.124183 8.2817419,7.4514831 7.9706503,8.4203259 7.3565035,7.764179 Z"
       id="path4"
       inkscape:path-effect="#path-effect4"
       inkscape:original-d="M 7.6595524,9.3891884 C 6.7423566,7.1080321 5.8251792,4.8269216 4.907965,2.5457196 5.3943127,2.3605664 5.8806408,2.1754207 6.3669788,1.9902712 6.5982873,1.7595304 6.8295819,1.5288036 7.0608904,1.2980628 8.7115933,3.340565 10.36223,5.3829855 12.0129,7.4254465 10.872859,7.1111585 9.732864,6.796883 8.5928461,6.4826011 8.2817419,7.4514831 7.9706503,8.4203259 7.6595524,9.3891884 Z"
       sodipodi:nodetypes="ccccccc"
       transform="translate(1.182996,-0.3370959)" /><path
       style="fill:#ffcc00;stroke:#000000;stroke-width:0.529167;stroke-linecap:round;stroke-linejoin:miter;stroke-miterlimit:0.2;stroke-dasharray:none"
       d="M 4.3354303,3.8739038 C 3.77886,4.3541613 2.6216529,5.7145323 2.295308,6.6601673 1.968963,7.6058024 2.4734599,8.1366803 2.9710546,8.3431117 3.4686493,8.549543 3.9593026,8.4315241 4.5105979,8.0795288 5.0618932,7.7275335 5.6737766,7.1415923 5.732752,6.4548944 5.7917274,5.7681965 5.2978024,4.9807853 5.0728687,4.3871397 4.8479349,3.793494 4.8920006,3.3936463 4.3354303,3.8739038 Z"
       id="path5"
       inkscape:path-effect="#path-effect5"
       inkscape:original-d="M 4.9360671,2.9937901 C 3.77886,4.3541613 2.6216529,5.7145323 1.464446,7.0749032 1.968963,7.6058024 2.4734599,8.1366803 2.9779669,8.6675689 3.4686493,8.549543 3.9593026,8.4315241 4.4499853,8.3134982 5.0618932,7.7275335 5.6737766,7.1415923 6.2856723,6.5556394 5.7917275,5.7681965 5.2978023,4.9807854 4.8038675,4.1933584 4.847935,3.793494 4.8920006,3.3936463 4.9360671,2.9937901 Z"
       sodipodi:nodetypes="ccccccc"
       transform="translate(1.0323448,-0.36022158)" /><path
       style="display:inline;fill:#ffd42a;stroke:#000000;stroke-width:0.529167;stroke-linecap:round;stroke-linejoin:miter;stroke-miterlimit:0.2;stroke-dasharray:none"
       d="M 1.7334764,7.8818816 C 1.4319623,7.849256 1.1021176,8.3393323 1.0289339,8.7807526 0.9557502,9.2221729 1.139216,9.6149127 1.1351977,9.877666 c -0.00402,0.262753 -0.19552438,0.395489 -0.1490934,0.735027 0.046431,0.339539 0.3307917,0.885857 0.573026,1.077386 0.2422344,0.19153 0.4423251,0.02827 0.4692129,-0.23651 0.026888,-0.264781 -0.1194312,-0.631051 -0.047826,-0.900873 0.071605,-0.269823 0.3611321,-0.44317 0.6352852,-0.407044 0.274153,0.03613 0.5329121,0.281714 0.5556256,0.524766 0.022714,0.243053 -0.1906242,0.483545 -0.1439521,0.705609 0.046672,0.222063 0.3533404,0.42568 0.6386346,0.259711 C 3.9514044,11.469769 4.2152888,10.934234 4.2273136,10.58852 4.2393383,10.242806 3.9995014,10.086954 3.9584416,9.8736784 3.9173818,9.660403 4.0751041,9.3897298 4.0849226,9.1532755 4.0947411,8.9168211 3.9566545,8.714614 3.6814029,8.6989673 3.4061513,8.6833207 2.9937667,8.8542364 2.6509677,8.6620301 2.3081687,8.4698237 2.0349906,7.9145072 1.7334764,7.8818816 Z"
       id="path10"
       inkscape:path-effect="#path-effect10"
       inkscape:original-d="M 1.761807,7.3591797 C 1.4319623,7.849256 1.1021176,8.3393323 0.77227297,8.8294085 0.95575021,9.2221729 1.139216,9.6149127 1.3226936,10.007678 1.1311793,10.140419 0.93967343,10.273155 0.74816355,10.405893 1.0325354,10.952232 1.3168958,11.49855 1.601262,12.044878 1.8013647,11.881609 2.0014557,11.71835 2.2015587,11.55508 2.0552311,11.188788 1.9089121,10.822518 1.7625847,10.456227 2.0521221,10.282874 2.3416491,10.109526 2.6311808,9.9361756 2.889955,10.181778 3.148714,10.427366 3.4074883,10.672968 3.1941416,10.913471 2.9808034,11.153963 2.7674609,11.394461 3.0741479,11.59809 3.3808162,11.801707 3.6875036,12.005337 3.9514044,11.469769 4.2152888,10.934234 4.4791891,10.398667 4.2393383,10.242806 3.9995013,10.086954 3.7596501,9.9310925 3.9173819,9.660403 4.0751041,9.3897298 4.2328358,9.1190403 4.0947411,8.9168211 3.9566545,8.714614 3.8185599,8.512395 3.4061513,8.6833207 2.9937667,8.8542364 2.5813577,9.0251623 2.3081687,8.4698237 2.0349906,7.9145072 1.761807,7.3591797 Z"
       sodipodi:nodetypes="ccccccccccccccccc"
       transform="rotate(6.8117069,3.9945605,15.191053)"
       inkscape:transform-center-x="0.011549219"
       inkscape:transform-center-y="0.082451521" /></g></svg>
