<?xml version="1.0" encoding="UTF-8" standalone="no"?>
<!-- Created with Inkscape (http://www.inkscape.org/) -->

<svg
   width="63.999996"
   height="63.999996"
   viewBox="0 0 16.933332 16.933332"
   version="1.1"
   id="svg1"
   xml:space="preserve"
   sodipodi:docname="world_properties.svg"
   inkscape:version="1.3.2 (1:1.3.2+202311252150+091e20ef0f)"
   xmlns:inkscape="http://www.inkscape.org/namespaces/inkscape"
   xmlns:sodipodi="http://sodipodi.sourceforge.net/DTD/sodipodi-0.dtd"
   xmlns="http://www.w3.org/2000/svg"
   xmlns:svg="http://www.w3.org/2000/svg"><sodipodi:namedview
     id="namedview1"
     pagecolor="#505050"
     bordercolor="#eeeeee"
     borderopacity="1"
     inkscape:showpageshadow="0"
     inkscape:pageopacity="0"
     inkscape:pagecheckerboard="0"
     inkscape:deskcolor="#505050"
     inkscape:zoom="9.015612"
     inkscape:cx="30.169888"
     inkscape:cy="36.270416"
     inkscape:window-width="1850"
     inkscape:window-height="1016"
     inkscape:window-x="70"
     inkscape:window-y="27"
     inkscape:window-maximized="1"
     inkscape:current-layer="layer1" /><defs
     id="defs1" /><g
     id="layer1"
     style="display:inline"><circle
       style="display:inline;fill:#2c89a0;stroke:#003380;stroke-width:0.376903;stroke-linecap:round;stroke-miterlimit:0.2;stroke-dasharray:none"
       id="path20"
       cx="8.4666662"
       cy="8.4666662"
       r="7.3294644" /><g
       id="g20"
       transform="matrix(1.8578419,0,0,1.8578419,-7.8842165,-4.6043821)"
       style="display:inline"><path
         style="fill:#ffcc00;stroke:#003380;stroke-width:0.132292;stroke-linecap:round;stroke-miterlimit:0.2;stroke-dasharray:none"
         d="M 8.9878714,7.0296188 C 8.8808817,7.0959136 8.6669022,7.2285034 8.5384699,7.3509631 8.4100377,7.4734229 8.3671547,7.585748 8.4059275,7.7229123 c 0.038773,0.1371643 0.1591978,0.2991589 0.2455131,0.3955988 0.086315,0.09644 0.1385169,0.1273207 0.1574447,0.1742604 0.018928,0.04694 0.00458,0.109936 -0.00933,0.1843911 -0.013903,0.074455 -0.02737,0.1603647 -0.1133136,0.2742628 C 8.6002978,8.8653235 8.4418834,9.0072027 8.3273741,9.1396748 8.2128647,9.2721469 8.1422665,9.395204 8.07472,9.5148998 8.007173,9.6345956 7.9426827,9.7509228 7.913789,9.8333228 7.884895,9.9157228 7.8916,9.9641914 7.907779,10.021141 c 0.016184,0.05695 0.041842,0.122367 0.1237514,0.167098 0.08191,0.04473 0.220062,0.06877 0.3454656,0.04199 0.1254037,-0.02678 0.2380462,-0.104372 0.3191191,-0.158356 0.081073,-0.05398 0.130575,-0.08436 0.2157828,-0.091928 0.085208,-0.00757 0.2061193,0.00767 0.2540757,-0.00107 0.047956,-0.00874 0.022955,-0.04147 0.061118,-0.094932 0.038163,-0.053463 0.139485,-0.1276595 0.2011148,-0.2018909 0.06163,-0.074231 0.083564,-0.1484909 0.1320984,-0.1567847 0.048535,-0.00829 0.1236662,0.049378 0.2591502,0.041757 0.135484,-0.00762 0.331312,-0.080533 0.388648,-0.1595956 0.05734,-0.079062 -0.02382,-0.1642667 -0.02778,-0.293225 -0.004,-0.1289584 0.06924,-0.3016562 0.105759,-0.4342733 0.03652,-0.1326171 0.03634,-0.2251444 0.06641,-0.290081 0.03007,-0.064936 0.09037,-0.1022786 0.111204,-0.046966 0.02083,0.055313 0.0022,0.2032759 -0.02931,0.3324273 -0.03149,0.1291514 -0.07583,0.2394821 -0.09448,0.3222914 -0.01866,0.082809 -0.01163,0.1380953 0.10504,0.1992713 0.116673,0.061176 0.342984,0.1282404 0.436314,0.066059 0.09333,-0.062181 0.05367,-0.2536066 0.03784,-0.3847211 -0.01583,-0.1311145 -0.0078,-0.2019159 0.04684,-0.1199326 0.05466,0.081983 0.155964,0.3167425 0.237202,0.4427115 0.08124,0.125969 0.142406,0.1431424 0.123245,0.2305274 -0.01916,0.087385 -0.118647,0.2449752 -0.176631,0.3929455 -0.05798,0.1479703 -0.07446,0.2863068 0.01527,0.2658838 0.08973,-0.02042 0.285667,-0.1996066 0.470351,-0.3906187 0.184685,-0.1910121 0.358103,-0.3938353 0.51912,-0.683808 0.161016,-0.2899727 0.309609,-0.6670576 0.38361,-0.9849081 0.074,-0.3178505 0.0734,-0.5764304 0.03173,-0.7260057 C 12.528151,7.1554248 12.445411,7.114864 12.373034,7.0701044 12.300657,7.0253449 12.238649,6.9763901 12.21773,6.8956208 12.19681,6.8148515 12.21698,6.7022722 12.139617,6.5522693 12.062253,6.4022664 11.887363,6.2148493 11.741873,6.1186542 11.596382,6.0224591 11.4803,6.0174896 11.403822,6.0300714 c -0.07648,0.012582 -0.113348,0.042715 -0.184767,0.049318 -0.07142,0.0066 -0.17738,-0.010326 -0.244433,0.00918 -0.06705,0.019502 -0.0952,0.075434 -0.07908,0.1224055 0.01611,0.046972 0.07647,0.084972 0.116741,0.1410715 0.04027,0.056099 0.06045,0.1302895 0.0988,0.1807975 0.03835,0.050508 0.09488,0.077328 0.146906,0.050682 0.05203,-0.026647 0.09955,-0.1067561 0.131537,-0.159969 0.03199,-0.053213 0.04843,-0.07952 0.08854,-0.06228 0.04011,0.017241 0.103868,0.078036 0.120924,0.1148812 0.01705,0.036845 -0.0126,0.049745 -0.04379,0.065201 -0.03119,0.015455 -0.06391,0.033469 -0.0968,0.076751 -0.0329,0.043281 -0.06597,0.1118273 -0.14954,0.1346527 -0.08357,0.022825 -0.217651,-7.02e-5 -0.419769,-0.053558 -0.202118,-0.053487 -0.472298,-0.1375728 -0.626296,-0.1556454 -0.153999,-0.018073 -0.191809,0.029868 -0.283576,0.014737 -0.091767,-0.015131 -0.2374791,-0.09333 -0.3107815,-0.095944 -0.073303,-0.00261 -0.074193,0.070359 -0.026611,0.1451232 0.047582,0.074764 0.1436308,0.1513148 0.2448087,0.2148912 0.1011779,0.063576 0.2074788,0.114175 0.2956198,0.1340298 0.08814,0.019855 0.158117,0.00897 0.226407,0.09611 0.06829,0.087145 0.134889,0.2723171 0.219535,0.3711107 0.08465,0.098794 0.187333,0.1112042 0.280003,0.1036376 0.09267,-0.00757 0.17532,-0.035111 0.22002,-0.00197 0.0447,0.033143 0.05145,0.1269778 0.06627,0.1990534 0.01482,0.072076 0.0377,0.1223968 -0.02733,0.1160919 -0.06503,-0.0063 -0.217978,-0.06923 -0.318887,-0.1000095 -0.100909,-0.03078 -0.149779,-0.029413 -0.169285,0.010838 -0.0195,0.040251 -0.0096,0.1193743 0.02243,0.170313 0.03208,0.050939 0.08637,0.073687 0.07014,0.093483 -0.01623,0.019796 -0.102977,0.03664 -0.214658,-0.018172 C 10.445201,7.9420706 10.308593,7.8156073 10.232219,7.6808119 10.155846,7.5460165 10.13971,7.4028976 10.045459,7.2854595 9.951207,7.1680213 9.7788466,7.0762704 9.607393,7.0268617 9.4359393,6.9774531 9.2654024,6.9703889 9.1801323,6.9668567 c -0.08527,-0.00353 -0.085271,-0.00353 -0.1922609,0.062762 z"
         id="path13" /><path
         style="fill:#ffcc00;stroke:#003380;stroke-width:0.132292;stroke-linecap:round;stroke-miterlimit:0.2;stroke-dasharray:none"
         d="M 6.3547293,5.96359 5.9776453,5.9634853 C 5.8434256,5.963448 5.7728799,6.0000063 5.824409,6.1652926 c 0.048203,0.1546172 0.2110714,0.049522 0.2585937,0.1397431 0.031709,0.0602 -0.3404345,0.2808035 -0.3537322,0.3361616 -0.00344,0.014331 0.1536105,0.075632 0.1442177,0.092957 C 5.7599744,6.9435301 5.5408051,7.2463569 5.3218605,7.3923199 5.2373715,7.4486459 5.0956335,7.5190345 5.0179586,7.5851836 4.9319841,7.6584007 5.244664,8.0420432 5.3855968,8.0938134 5.4254613,8.1084572 5.5587748,7.7857711 5.6891182,7.818657 5.7829062,7.84232 5.9036879,8.2492282 6.0253798,8.1174669 6.124295,8.0103669 6.0032105,7.7466469 6.1171556,7.6915206 6.3467012,7.580467 6.5491158,7.9215091 6.6505068,7.8148818 6.7445067,7.7160274 6.7510876,7.6219136 6.886703,7.5541059 7.0199083,7.4875033 7.3895901,7.7075677 7.2491363,7.4574998 7.0956658,7.1842569 7.1696911,7.1191002 6.9940087,6.9837127 6.8579698,6.878876 7.2058067,6.8296541 7.1002621,6.6465311 6.9975514,6.468325 7.1894711,6.384922 6.9910998,6.1664483 6.8147036,5.9721765 7.0063982,5.7485061 6.692885,5.7889882 Z"
         id="path14" /><path
         style="fill:#ffcc00;stroke:#003380;stroke-width:0.132292;stroke-linecap:round;stroke-miterlimit:0.2;stroke-dasharray:none"
         d="M 6.9960221,3.9452846 C 6.9394804,3.9804562 6.8263971,4.0507993 6.6517138,4.1653235 6.4770305,4.2798478 6.2407475,4.4385531 6.184595,4.6089094 6.128443,4.7792656 6.252421,4.9612725 6.3057585,5.1042325 c 0.053338,0.14296 0.036035,0.2468731 0.055921,0.3220355 0.019886,0.075162 0.076959,0.1215737 0.1515371,0.060291 C 6.5877945,5.4252764 6.6798768,5.2562996 6.658819,5.1290167 6.6377611,5.0017339 6.5035632,4.9161454 6.5194823,4.8952009 c 0.015919,-0.020944 0.1819554,0.022755 0.3153987,0.030971 0.1334433,0.00822 0.2342941,-0.019053 0.3424793,-0.030066 0.1081853,-0.011013 0.2237052,-0.00577 0.2929344,-0.022772 0.069229,-0.017002 0.092168,-0.056249 0.2725235,-0.020258 0.1803559,0.035991 0.5181293,0.1472182 0.5899175,0.087774 C 8.404524,4.8814054 8.210327,4.6512897 8.2405227,4.6119362 8.2707183,4.5725828 8.5253058,4.7239911 8.6624984,4.7347799 8.799691,4.7455686 8.8194871,4.6157374 8.8582778,4.5195498 8.8970686,4.4233623 8.9548538,4.3608187 8.9319224,4.2933022 8.908991,4.2257858 8.8053432,4.1532971 8.7674486,4.0240747 8.729554,3.8948523 8.7574129,3.7088966 8.6393768,3.7291152 8.5213407,3.7493339 8.2574102,3.9757265 8.1625957,3.9447452 8.0677812,3.9137639 8.1420831,3.6254087 7.9852625,3.5767409 7.828442,3.528073 7.4404992,3.7190929 7.2465278,3.8146028 7.0525565,3.9101127 7.0525639,3.910113 6.9960221,3.9452846 Z"
         id="path15" /><path
         style="fill:#ffcc00;stroke:#003380;stroke-width:0.132292;stroke-linecap:round;stroke-miterlimit:0.2;stroke-dasharray:none"
         d="m 9.0735208,10.180435 c -0.043945,0.03729 -0.1318297,0.111853 -0.1473942,0.180625 -0.015564,0.06877 0.041192,0.131731 0.090036,0.141718 0.048844,0.01 0.089771,-0.033 0.1611025,-0.06345 0.071332,-0.03045 0.1730642,-0.04835 0.2387295,-0.09326 0.065665,-0.04491 0.095262,-0.116817 0.085976,-0.162951 -0.00929,-0.04613 -0.057447,-0.06648 -0.1280143,-0.06885 -0.070568,-0.0024 -0.1635301,0.01323 -0.2100103,0.02103 -0.04648,0.0078 -0.046481,0.0079 -0.090425,0.04515 z"
         id="path17" /><path
         style="fill:#ffcc00;stroke:#003380;stroke-width:0.132292;stroke-linecap:round;stroke-miterlimit:0.2;stroke-dasharray:none"
         d="m 10.398881,5.1149372 c -0.11206,-0.048544 -0.233589,0.049826 -0.182299,0.1475542 0.05129,0.097728 0.275401,0.1948134 0.336168,0.1456268 0.06077,-0.049187 -0.04181,-0.244637 -0.153869,-0.293181 z"
         id="path18" /><path
         style="fill:#ffcc00;stroke:#003380;stroke-width:0.132292;stroke-linecap:round;stroke-miterlimit:0.2;stroke-dasharray:none"
         d="M 10.246304,4.8670683 C 10.170842,4.8004959 10.019919,4.6673523 9.8401822,4.658816 9.6604453,4.6502798 9.4518947,4.7663514 9.3861934,4.6842137 9.3204922,4.602076 9.3976397,4.3217308 9.4942099,4.1453159 c 0.09657,-0.176415 0.2125604,-0.2488948 0.2788219,-0.3311305 0.066262,-0.082236 0.082793,-0.1742259 0.1280804,-0.2011175 0.045287,-0.026892 0.1193288,0.011316 0.2877008,0.065862 0.168371,0.054546 0.431075,0.1254328 0.718918,0.3076937 0.287842,0.1822609 0.600823,0.4758948 0.650818,0.5770553 0.05,0.1011604 -0.162996,0.00984 -0.260654,0.039399 -0.09766,0.029555 -0.07998,0.1799792 -0.205574,0.1841557 -0.125593,0.00418 -0.394437,-0.1378893 -0.506831,-0.16132 -0.112394,-0.023431 -0.06832,0.071782 0.0059,0.1546872 0.07417,0.082906 0.178405,0.1534929 0.193529,0.1727043 0.01512,0.019211 -0.05888,-0.012962 -0.150915,-0.024803 -0.09204,-0.011841 -0.202111,-0.00335 -0.257149,8.928e-4 -0.05504,0.00424 -0.05504,0.00425 -0.130502,-0.062327 z"
         id="path19" /></g></g></svg>
